<?xml version="1.0" standalone="no"?>
<!DOCTYPE svg PUBLIC "-//W3C//DTD SVG 20010904//EN"
 "http://www.w3.org/TR/2001/REC-SVG-20010904/DTD/svg10.dtd">
<svg version="1.0" xmlns="http://www.w3.org/2000/svg"
 width="215.000000pt" height="209.000000pt" viewBox="0 0 215.000000 209.000000"
 preserveAspectRatio="xMidYMid meet">

<g transform="translate(0.000000,209.000000) scale(0.100000,-0.100000)"
fill="#000000" stroke="none">
<path d="M926 2040 c-218 -35 -400 -125 -554 -274 -131 -126 -205 -244 -262
-414 -174 -523 124 -1099 655 -1265 570 -179 1170 180 1286 768 17 87 17 299
0 380 -7 33 -21 88 -32 122 l-20 62 -37 -24 c-20 -13 -52 -30 -70 -36 -25 -8
-32 -16 -27 -28 52 -131 63 -337 26 -484 -81 -317 -307 -545 -622 -628 -118
-31 -290 -31 -408 0 -104 27 -190 66 -271 121 l-62 42 233 234 234 234 125 1
125 0 275 289 c269 282 276 289 315 289 104 2 168 101 127 195 -24 53 -57 77
-115 83 -53 6 -96 -14 -128 -59 -22 -30 -26 -71 -17 -144 2 -15 -65 -91 -252
-287 l-255 -266 -125 -1 -125 0 -248 -247 -248 -248 -25 30 c-140 167 -207
346 -207 555 -2 585 563 995 1116 809 95 -31 186 -80 254 -135 49 -41 58 -42
79 -9 9 13 32 34 51 46 l34 21 -22 24 c-38 40 -165 124 -246 161 -157 73 -396
108 -557 83z"/>
<path d="M610 1153 l0 -448 110 110 c109 109 110 110 110 157 l0 48 168 0 167
0 83 90 83 90 -250 0 -251 0 0 200 0 200 -110 0 -110 0 0 -447z"/>
<path d="M1713 1225 l-93 -100 0 -324 c0 -323 0 -324 20 -306 38 35 99 120
134 191 l36 71 -2 284 -3 284 -92 -100z"/>
<path d="M1422 909 l-92 -101 0 -258 0 -259 55 24 c30 14 73 36 95 50 l40 25
0 310 c0 171 -1 310 -3 310 -1 0 -44 -45 -95 -101z"/>
<path d="M1030 500 l0 -250 54 0 c29 0 74 3 100 6 l46 7 0 243 0 244 -100 0
-100 0 0 -250z"/>
<path d="M827 572 l-98 -98 3 -79 3 -79 93 -30 c51 -16 95 -27 98 -24 2 3 3
96 2 207 l-3 201 -98 -98z"/>
</g>
</svg>
