<?xml version="1.0" standalone="no"?>
<!DOCTYPE svg PUBLIC "-//W3C//DTD SVG 20010904//EN"
 "http://www.w3.org/TR/2001/REC-SVG-20010904/DTD/svg10.dtd">
<svg version="1.0" xmlns="http://www.w3.org/2000/svg"
 width="378.000000pt" height="99.000000pt" viewBox="0 0 378.000000 99.000000"
 preserveAspectRatio="xMidYMid meet">

<g transform="translate(0.000000,99.000000) scale(0.100000,-0.100000)"
fill="#000000" stroke="none">
<path d="M353 826 c-88 -28 -154 -86 -199 -176 -24 -47 -28 -67 -29 -140 0
-77 3 -92 33 -152 59 -120 161 -183 297 -183 91 0 162 26 228 84 79 70 123
214 97 319 -10 46 -14 50 -30 40 -16 -10 -17 -21 -13 -83 8 -101 -14 -164 -81
-230 -97 -98 -247 -114 -361 -39 l-26 17 78 79 c71 72 81 78 118 78 38 0 47 6
140 100 55 55 107 100 117 100 22 0 41 35 33 60 -15 47 -85 30 -85 -21 0 -24
-17 -47 -86 -119 -82 -84 -89 -90 -128 -90 -37 0 -47 -6 -122 -81 -46 -46 -87
-78 -93 -75 -6 4 -23 28 -37 53 -36 61 -45 172 -19 240 42 108 154 186 270
186 62 0 140 -26 176 -58 14 -13 18 -13 33 4 17 19 16 20 -22 46 -80 53 -197
69 -289 41z"/>
<path d="M310 548 l0 -141 26 24 c14 13 30 34 35 47 7 19 16 22 62 22 46 0 57
4 82 30 l29 30 -87 0 -87 0 0 65 0 65 -30 0 -30 0 0 -142z"/>
<path d="M950 505 l0 -135 45 0 45 0 0 60 0 60 60 0 60 0 0 -60 0 -60 45 0 45
0 0 135 0 135 -45 0 -45 0 0 -55 0 -56 -57 3 -58 3 -3 53 -3 52 -45 0 -44 0 0
-135z"/>
<path d="M1328 505 l3 -135 130 0 c122 0 129 1 129 20 0 18 -7 20 -85 20 l-85
0 0 40 0 40 75 0 c68 0 75 2 75 20 0 18 -7 20 -75 20 l-75 0 0 35 0 35 80 0
c73 0 80 2 80 20 0 19 -7 20 -127 20 l-128 0 3 -135z"/>
<path d="M1650 505 l0 -135 50 0 50 0 0 135 0 135 -50 0 -50 0 0 -135z"/>
<path d="M1828 505 l3 -135 40 0 39 0 0 87 0 86 58 -84 c58 -83 59 -84 105
-87 l47 -3 0 135 0 136 -35 0 -35 0 0 -86 c0 -51 -4 -83 -10 -79 -5 3 -34 41
-65 85 l-56 80 -47 0 -47 0 3 -135z"/>
<path d="M2310 620 c0 -17 7 -20 50 -20 l50 0 0 -115 0 -115 45 0 45 0 0 115
0 115 50 0 c43 0 50 3 50 20 0 19 -7 20 -145 20 -138 0 -145 -1 -145 -20z"/>
<path d="M2660 505 l0 -135 130 0 c123 0 130 1 130 20 0 18 -7 20 -85 20 l-85
0 0 40 0 40 75 0 c68 0 75 2 75 20 0 18 -7 20 -75 20 l-75 0 0 35 0 35 80 0
c73 0 80 2 80 20 0 19 -7 20 -125 20 l-125 0 0 -135z"/>
<path d="M2982 508 l3 -133 133 -3 c132 -3 132 -3 132 20 0 23 -2 23 -95 20
l-95 -3 0 95 0 96 85 0 c78 0 85 2 85 20 0 19 -7 20 -125 20 l-126 0 3 -132z"/>
<path d="M3308 505 l3 -135 40 0 39 0 0 60 0 60 60 0 60 0 0 -60 0 -60 45 0
45 0 0 135 0 135 -45 0 -45 0 0 -55 0 -56 -57 3 -58 3 -3 53 -3 52 -42 0 -42
0 3 -135z"/>
<path d="M668 561 c-27 -31 -28 -38 -28 -137 0 -57 2 -104 5 -104 3 0 16 17
30 39 24 35 26 45 23 137 l-3 98 -27 -33z"/>
<path d="M578 463 c-26 -27 -28 -35 -28 -116 0 -48 4 -87 9 -87 5 0 18 8 30
18 20 16 22 25 19 115 l-3 98 -27 -28z"/>
<path d="M447 403 c-4 -3 -7 -42 -7 -85 l0 -79 33 3 32 3 3 83 3 82 -29 0
c-16 0 -32 -3 -35 -7z"/>
<path d="M372 337 c-20 -20 -32 -43 -30 -53 3 -18 52 -43 63 -32 3 3 5 31 3
63 l-3 56 -33 -34z"/>
</g>
</svg>
